<?xml version="1.0" encoding="UTF-8" standalone="no"?>
<!DOCTYPE svg PUBLIC "-//W3C//DTD SVG 1.1//EN" "http://www.w3.org/Graphics/SVG/1.1/DTD/svg11.dtd">
<svg width="24" height="24" viewBox="0 0 512 512" version="1.1" xmlns="http://www.w3.org/2000/svg" xmlns:xlink="http://www.w3.org/1999/xlink" xml:space="preserve" xmlns:serif="http://www.serif.com/" style="fill-rule:evenodd;clip-rule:evenodd;stroke-linejoin:round;stroke-miterlimit:2;">
    <circle cx="256" cy="256" r="256" style="fill:rgb(248,249,251);"/>
    <g>
        <path d="M52.92,100.142C32.811,126.305 17.648,156.46 8.819,189.219L141.997,189.219L52.92,100.142Z" style="fill:rgb(92,107,192);fill-rule:nonzero;"/>
        <path d="M503.181,189.219C494.352,156.461 479.188,126.306 459.08,100.143L370.005,189.219L503.181,189.219Z" style="fill:rgb(92,107,192);fill-rule:nonzero;"/>
        <path d="M8.819,322.784C17.649,355.542 32.812,385.697 52.92,411.859L141.994,322.784L8.819,322.784Z" style="fill:rgb(92,107,192);fill-rule:nonzero;"/>
        <path d="M411.858,52.921C385.695,32.812 355.541,17.649 322.782,8.819L322.782,141.996L411.858,52.921Z" style="fill:rgb(92,107,192);fill-rule:nonzero;"/>
        <path d="M100.142,459.079C126.305,479.188 156.46,494.351 189.218,503.181L189.218,370.005L100.142,459.079Z" style="fill:rgb(92,107,192);fill-rule:nonzero;"/>
        <path d="M189.217,8.819C156.459,17.649 126.304,32.812 100.142,52.92L189.217,141.995L189.217,8.819Z" style="fill:rgb(92,107,192);fill-rule:nonzero;"/>
        <path d="M322.783,503.181C355.541,494.351 385.696,479.188 411.858,459.08L322.783,370.005L322.783,503.181Z" style="fill:rgb(92,107,192);fill-rule:nonzero;"/>
        <path d="M370.005,322.784L459.08,411.86C479.188,385.698 494.352,355.542 503.181,322.784L370.005,322.784Z" style="fill:rgb(92,107,192);fill-rule:nonzero;"/>
    </g>
    <g>
        <path d="M509.833,222.609L289.392,222.609L289.392,2.167C278.461,0.744 267.317,0 256,0C244.681,0 233.539,0.744 222.609,2.167L222.609,222.608L2.167,222.608C0.744,233.539 0,244.683 0,256C0,267.319 0.744,278.461 2.167,289.391L222.608,289.391L222.608,509.833C233.539,511.256 244.681,512 256,512C267.317,512 278.461,511.257 289.391,509.833L289.391,289.392L509.833,289.392C511.256,278.461 512,267.319 512,256C512,244.683 511.256,233.539 509.833,222.609Z" style="fill:rgb(245,144,153);fill-rule:nonzero;"/>
        <path d="M322.783,322.784L437.019,437.02C442.273,431.768 447.285,426.277 452.067,420.585L354.265,322.783L322.783,322.783L322.783,322.784Z" style="fill:rgb(245,144,153);fill-rule:nonzero;"/>
        <path d="M189.217,322.784L189.215,322.784L74.98,437.019C80.232,442.273 85.723,447.285 91.415,452.067L189.217,354.263L189.217,322.784Z" style="fill:rgb(245,144,153);fill-rule:nonzero;"/>
        <path d="M189.217,189.219L189.217,189.217L74.981,74.98C69.727,80.232 64.715,85.723 59.933,91.415L157.736,189.218L189.217,189.218L189.217,189.219Z" style="fill:rgb(245,144,153);fill-rule:nonzero;"/>
        <path d="M322.783,189.219L437.02,74.981C431.768,69.727 426.277,64.715 420.585,59.934L322.783,157.737L322.783,189.219Z" style="fill:rgb(245,144,153);fill-rule:nonzero;"/>
    </g>
</svg>
